<mxfile host="Electron" modified="2024-02-22T14:16:31.611Z" agent="Mozilla/5.0 (Windows NT 10.0; Win64; x64) AppleWebKit/537.36 (KHTML, like Gecko) draw.io/23.1.5 Chrome/120.0.6099.109 Electron/28.1.0 Safari/537.36" etag="yMtpuZpgUVTKb6s3ELCj" version="23.1.5" type="device">
  <diagram name="Seite-1" id="-2_lGdbDL4F4JxRgx1XD">
    <mxGraphModel dx="1687" dy="993" grid="0" gridSize="10" guides="1" tooltips="1" connect="1" arrows="1" fold="1" page="1" pageScale="1" pageWidth="1169" pageHeight="827" math="0" shadow="0">
      <root>
        <mxCell id="0" />
        <mxCell id="1" parent="0" />
        <mxCell id="zB8KHU6CvmrqrdZ8_nqi-1" value="Page" style="rounded=0;whiteSpace=wrap;html=1;fillColor=#f5f5f5;fontColor=#333333;strokeColor=#666666;verticalAlign=top;" vertex="1" parent="1">
          <mxGeometry x="350" y="86" width="516" height="490" as="geometry" />
        </mxCell>
        <mxCell id="zB8KHU6CvmrqrdZ8_nqi-2" value="Block" style="rounded=0;whiteSpace=wrap;html=1;fillColor=#b1ddf0;strokeColor=#10739e;" vertex="1" parent="1">
          <mxGeometry x="393" y="130" width="450" height="60" as="geometry" />
        </mxCell>
        <mxCell id="zB8KHU6CvmrqrdZ8_nqi-3" value="Block" style="rounded=0;whiteSpace=wrap;html=1;fillColor=#b1ddf0;strokeColor=#10739e;" vertex="1" parent="1">
          <mxGeometry x="393" y="194" width="450" height="60" as="geometry" />
        </mxCell>
        <mxCell id="zB8KHU6CvmrqrdZ8_nqi-4" value="" style="rounded=0;whiteSpace=wrap;html=1;fillColor=#b1ddf0;strokeColor=#10739e;" vertex="1" parent="1">
          <mxGeometry x="393" y="258" width="450" height="286" as="geometry" />
        </mxCell>
        <mxCell id="zB8KHU6CvmrqrdZ8_nqi-5" value="Block" style="rounded=0;whiteSpace=wrap;html=1;fillColor=#b1ddf0;strokeColor=#10739e;" vertex="1" parent="1">
          <mxGeometry x="412" y="277" width="413" height="52" as="geometry" />
        </mxCell>
        <mxCell id="zB8KHU6CvmrqrdZ8_nqi-6" value="Block" style="rounded=0;whiteSpace=wrap;html=1;fillColor=#b1ddf0;strokeColor=#10739e;verticalAlign=top;" vertex="1" parent="1">
          <mxGeometry x="412" y="343" width="413" height="79" as="geometry" />
        </mxCell>
        <mxCell id="zB8KHU6CvmrqrdZ8_nqi-7" value="Block" style="rounded=0;whiteSpace=wrap;html=1;fillColor=#b1ddf0;strokeColor=#10739e;" vertex="1" parent="1">
          <mxGeometry x="411.5" y="434" width="413" height="52" as="geometry" />
        </mxCell>
        <mxCell id="zB8KHU6CvmrqrdZ8_nqi-8" value="Block Direction" style="endArrow=classic;html=1;rounded=0;horizontal=0;strokeColor=#FF0000;strokeWidth=2;" edge="1" parent="1">
          <mxGeometry width="50" height="50" relative="1" as="geometry">
            <mxPoint x="379" y="128" as="sourcePoint" />
            <mxPoint x="381" y="542" as="targetPoint" />
          </mxGeometry>
        </mxCell>
        <mxCell id="zB8KHU6CvmrqrdZ8_nqi-9" value="Inline Direction" style="endArrow=classic;html=1;rounded=0;horizontal=1;entryX=1;entryY=0.5;entryDx=0;entryDy=0;exitX=0;exitY=0.5;exitDx=0;exitDy=0;strokeColor=#FF0000;strokeWidth=2;" edge="1" parent="1">
          <mxGeometry width="50" height="50" relative="1" as="geometry">
            <mxPoint x="412" y="421" as="sourcePoint" />
            <mxPoint x="825" y="421" as="targetPoint" />
          </mxGeometry>
        </mxCell>
        <mxCell id="zB8KHU6CvmrqrdZ8_nqi-10" value="&lt;font style=&quot;font-size: 10px;&quot;&gt;inline&lt;/font&gt;" style="rounded=0;whiteSpace=wrap;html=1;fillColor=#fad7ac;strokeColor=#b46504;" vertex="1" parent="1">
          <mxGeometry x="422" y="381.5" width="76" height="25" as="geometry" />
        </mxCell>
        <mxCell id="zB8KHU6CvmrqrdZ8_nqi-11" value="inline" style="rounded=0;whiteSpace=wrap;html=1;fillColor=#fad7ac;strokeColor=#b46504;" vertex="1" parent="1">
          <mxGeometry x="506" y="374" width="76" height="32.5" as="geometry" />
        </mxCell>
        <mxCell id="zB8KHU6CvmrqrdZ8_nqi-12" value="inline" style="rounded=0;whiteSpace=wrap;html=1;fillColor=#fad7ac;strokeColor=#b46504;" vertex="1" parent="1">
          <mxGeometry x="591" y="374" width="76" height="32.5" as="geometry" />
        </mxCell>
        <mxCell id="zB8KHU6CvmrqrdZ8_nqi-13" value="inline" style="rounded=0;whiteSpace=wrap;html=1;fillColor=#fad7ac;strokeColor=#b46504;" vertex="1" parent="1">
          <mxGeometry x="679" y="374" width="76" height="32.5" as="geometry" />
        </mxCell>
        <mxCell id="zB8KHU6CvmrqrdZ8_nqi-14" value="&lt;font face=&quot;Verdana&quot; style=&quot;font-size: 14px;&quot;&gt;Block und Inline Direction sind abhängig von den regionalen Einstellungen. Im arabischen Raum ist die Inline Direction von rechts nach links. Im japanischen Sprachraum kann die Block-Direction von rechts nach links und die Inline-Direction von oben nach unten gehen.&amp;nbsp;&lt;/font&gt;" style="text;html=1;align=left;verticalAlign=middle;whiteSpace=wrap;rounded=0;fontFamily=Helvetica;fontSize=11;fontColor=default;labelBackgroundColor=default;" vertex="1" parent="1">
          <mxGeometry x="315" y="631" width="559" height="69" as="geometry" />
        </mxCell>
        <mxCell id="zB8KHU6CvmrqrdZ8_nqi-15" value="&lt;font face=&quot;Verdana&quot; style=&quot;font-size: 14px;&quot;&gt;Der Browser unterscheidet zwischen Block- und Inline-Elementen.&lt;br&gt;&lt;br&gt;Vor und nach jedem Block wird ein Zeilenumbruch eingefügt.&lt;br&gt;&lt;br&gt;Blöcke erstrecken sich über gesamte Breite ihres Containers.&lt;br&gt;&lt;br&gt;Inline-Elemente werden nebeneinander dargestellt und nehmen nur so viel Platz in Anspruch, wie notwendig ist.&lt;br&gt;&lt;br&gt;Das CSS Property display legt fest, ob ein Element Block- oder Inline-Element ist.&lt;br&gt;&lt;/font&gt;" style="text;html=1;align=left;verticalAlign=top;whiteSpace=wrap;rounded=0;fontFamily=Helvetica;fontSize=11;fontColor=default;labelBackgroundColor=default;" vertex="1" parent="1">
          <mxGeometry x="911" y="134" width="229" height="362" as="geometry" />
        </mxCell>
      </root>
    </mxGraphModel>
  </diagram>
</mxfile>
